# xmcd CD database file
#
# Track frame offsets:
#	150
#	12372
#	27958
#	45685
#	63938
#	81543
#	99585
#	121596
#	138230
#	158593
#	177670
#	197391
#	220425
#	240319
#
# Disc length: 3500 seconds
#
# Revision: 0
# Processed by: cddbd v1.5.2PL0 Copyright (c) Steve Scherf et al.
# Submitted via: CD2WAV32(JP) R3.22
#
DISCID=b50daa0e
DTITLE=美空ひばり - 美空ひばり大全集 ～共に歩んだ20年～ Disc8 ボーナスCD
DYEAR=2012
DGENRE=Folk
TTITLE0=真赤な太陽
TTITLE1=むらさきの夜明け
TTITLE2=人生一路
TTITLE3=ある女の詩(うた)
TTITLE4=一本の鉛筆
TTITLE5=ひとりぼっち
TTITLE6=月の夜汽車
TTITLE7=おまえに惚れた
TTITLE8=人恋酒
TTITLE9=裏町酒場
TTITLE10=笑ってよムーンライト
TTITLE11=愛燦燦(あいさんさん)
TTITLE12=みだれ髪
TTITLE13=川の流れのように
EXTD=
EXTT0=
EXTT1=
EXTT2=
EXTT3=
EXTT4=
EXTT5=
EXTT6=
EXTT7=
EXTT8=
EXTT9=
EXTT10=
EXTT11=
EXTT12=
EXTT13=
PLAYORDER=
